<?xml version="1.0" encoding="UTF-8"?>
<svg width="43px" height="28px" viewBox="0 0 43 28" version="1.1" xmlns="http://www.w3.org/2000/svg" xmlns:xlink="http://www.w3.org/1999/xlink">
    <!-- Generator: Sketch 64 (93537) - https://sketch.com -->
    <title>barcode@3x</title>
    <desc>Created with Sketch.</desc>
    <g id="Page-1" stroke="none" stroke-width="1" fill="none" fill-rule="evenodd">
        <g id="Account" transform="translate(-61.000000, -225.000000)" fill="#2C6AD8">
            <g id="Barcode-Icon" transform="translate(61.000000, 225.000000)">
                <g id="barcode">
                    <path d="M5.14285714,0 L0.857142857,0 C0.383741438,0 0,0.383741438 0,0.857142857 L0,5.14285714 C0,5.61625856 0.383741438,6 0.857142857,6 C1.33054428,6 1.71428571,5.61625856 1.71428571,5.14285714 L1.71428571,1.71428571 L5.14285714,1.71428571 C5.61625856,1.71428571 6,1.33054428 6,0.857142857 C6,0.383741438 5.61625856,0 5.14285714,0 Z" id="Path" fill-rule="nonzero"></path>
                    <path d="M42.1428571,0 L37.8571429,0 C37.3837414,0 37,0.383741438 37,0.857142857 C37,1.33054428 37.3837414,1.71428571 37.8571429,1.71428571 L41.2857143,1.71428571 L41.2857143,5.14285714 C41.2857143,5.61625856 41.6694557,6 42.1428571,6 C42.6162586,6 43,5.61625856 43,5.14285714 L43,0.857142857 C43,0.383741438 42.6162586,0 42.1428571,0 Z" id="Path" fill-rule="nonzero"></path>
                    <path d="M42.1428571,22 C41.6694557,22 41.2857143,22.3837414 41.2857143,22.8571429 L41.2857143,26.2857143 L37.8571429,26.2857143 C37.3837414,26.2857143 37,26.6694557 37,27.1428571 C37,27.6162586 37.3837414,28 37.8571429,28 L42.1428571,28 C42.6162586,28 43,27.6162586 43,27.1428571 L43,22.8571429 C43,22.3837414 42.6162586,22 42.1428571,22 Z" id="Path" fill-rule="nonzero"></path>
                    <path d="M5.14285714,26.2857143 L1.71428571,26.2857143 L1.71428571,22.8571429 C1.71428571,22.3837414 1.33054428,22 0.857142857,22 C0.383741438,22 0,22.3837414 0,22.8571429 L0,27.1428571 C0,27.6162586 0.383741438,28 0.857142857,28 L5.14285714,28 C5.61625856,28 6,27.6162586 6,27.1428571 C6,26.6694557 5.61625856,26.2857143 5.14285714,26.2857143 Z" id="Path" fill-rule="nonzero"></path>
                    <path d="M40,23.125 L40,3.875 C40,3.39173605 39.5523017,3 39,3 C38.4476983,3 38,3.39173605 38,3.875 L38,23.125 C38,23.6082639 38.4476983,24 39,24 C39.5523017,24 40,23.6082639 40,23.125 Z" id="Path" fill-rule="nonzero"></path>
                    <path d="M35,3 C34.4476983,3 34,3.39502089 34,3.88233716 L34,19.1176628 C34,19.6049791 34.4476983,20 35,20 C35.5523017,20 36,19.6049791 36,19.1176628 L36,3.88233716 C36,3.39502089 35.5523017,3 35,3 Z" id="Path" fill-rule="nonzero"></path>
                    <path d="M30,3 C29.4476983,3 29,3.39502089 29,3.88233716 L29,19.1176628 C29,19.6049791 29.4476983,20 30,20 C30.5523017,20 31,19.6049791 31,19.1176628 L31,3.88233716 C31,3.39502089 30.5523017,3 30,3 Z" id="Path" fill-rule="nonzero"></path>
                    <path d="M26,3 C25.4476983,3 25,3.39502089 25,3.88233716 L25,19.1176628 C25,19.6049791 25.4476983,20 26,20 C26.5523017,20 27,19.6049791 27,19.1176628 L27,3.88233716 C27,3.39502089 26.5523017,3 26,3 Z" id="Path" fill-rule="nonzero"></path>
                    <path d="M22,3 C21.4476983,3 21,3.39502089 21,3.88233716 L21,19.1176628 C21,19.6049791 21.4476983,20 22,20 C22.5523017,20 23,19.6049791 23,19.1176628 L23,3.88233716 C23,3.39502089 22.5523017,3 22,3 Z" id="Path" fill-rule="nonzero"></path>
                    <path d="M17,3 C16.4476983,3 16,3.39502089 16,3.88233716 L16,19.1176628 C16,19.6049791 16.4476983,20 17,20 C17.5523017,20 18,19.6049791 18,19.1176628 L18,3.88233716 C18,3.39502089 17.5523017,3 17,3 Z" id="Path" fill-rule="nonzero"></path>
                    <path d="M13,3 C12.4476983,3 12,3.39502089 12,3.88233716 L12,19.1176628 C12,19.6049791 12.4476983,20 13,20 C13.5523017,20 14,19.6049791 14,19.1176628 L14,3.88233716 C14,3.39502089 13.5523017,3 13,3 Z" id="Path" fill-rule="nonzero"></path>
                    <path d="M8,3 C7.44769834,3 7,3.39502089 7,3.88233716 L7,19.1176628 C7,19.6049791 7.44769834,20 8,20 C8.55230166,20 9,19.6049791 9,19.1176628 L9,3.88233716 C9,3.39502089 8.55230166,3 8,3 Z" id="Path" fill-rule="nonzero"></path>
                    <path d="M5,23.125 L5,3.875 C5,3.39173605 4.55230166,3 4,3 C3.44769834,3 3,3.39173605 3,3.875 L3,23.125 C3,23.6082639 3.44769834,24 4,24 C4.55230166,24 5,23.6082639 5,23.125 Z" id="Path" fill-rule="nonzero"></path>
                </g>
            </g>
        </g>
    </g>
</svg>