<?xml version="1.0" encoding="UTF-8"?>
<svg width="32px" height="32px" viewBox="0 0 32 32" version="1.1" xmlns="http://www.w3.org/2000/svg" xmlns:xlink="http://www.w3.org/1999/xlink">
    <!-- Generator: Sketch 64 (93537) - https://sketch.com -->
    <title>Path@3x</title>
    <desc>Created with Sketch.</desc>
    <g id="Symbols" stroke="none" stroke-width="1" fill="none" fill-rule="evenodd" stroke-linecap="round" stroke-linejoin="round">
        <g id="Navbar/Original" transform="translate(-232.000000, -12.000000)" stroke="#2C6AD8" stroke-width="2">
            <g id="message-circle" transform="translate(233.000000, 13.000000)">
                <path d="M30,14.1666917 C30.0056879,16.3664679 29.4917348,18.5364924 28.4999549,20.500015 C26.1015572,25.2988871 21.1981456,28.33126 15.8333083,28.333336 C13.6335321,28.3390714 11.4635076,27.8251182 9.49998496,26.8333383 L0,30 L3.16666165,20.500015 C2.17488179,18.5364924 1.66092862,16.3664679 1.66666403,14.1666917 C1.66873996,8.80185437 4.70111292,3.89844276 9.49998496,1.50004511 C11.4635076,0.508265243 13.6335321,-0.00568793117 15.8333083,0 L16.6666403,0 C23.8596446,0.39687967 29.6031203,6.14035539 30,13.3333597 L30,14.1666917 L30,14.1666917 Z" id="Path"></path>
            </g>
        </g>
    </g>
</svg>