<?xml version="1.0" encoding="UTF-8"?>
<svg width="32px" height="33px" viewBox="0 0 32 33" version="1.1" xmlns="http://www.w3.org/2000/svg" xmlns:xlink="http://www.w3.org/1999/xlink">
    <!-- Generator: Sketch 64 (93537) - https://sketch.com -->
    <title>money-bag-filled@3x</title>
    <desc>Created with Sketch.</desc>
    <g id="Symbols" stroke="none" stroke-width="1" fill="none" fill-rule="evenodd">
        <g id="Navbar/Original-Fill" transform="translate(-68.000000, -15.000000)" stroke-width="2">
            <g id="money-bag-filled" transform="translate(69.000000, 15.000000)">
                <path d="M1.83946588,28.2105263 C8.41048803,33.2631579 21.5525323,33.2631579 28.1235545,28.2105263 C32.5042359,24.8421053 29.2146827,18.1052632 18.2548947,8 L12.1707204,8 C0.90253594,18.1052632 -2.54121556,24.8421053 1.83946588,28.2105263 Z" id="Path-2" stroke="#2C6AD8" fill="#2C6AD8"></path>
                <path d="M18.5981489,1 L11.4475436,1 L12.5826207,4 L17.5653862,4 L18.5981489,1 Z" id="Rectangle" stroke="#2C6AD8" fill="#2C6AD8"></path>
                <g id="dollar-sign" transform="translate(11.000000, 13.000000)" stroke="#FFFFFF" stroke-linecap="round" stroke-linejoin="round">
                    <line x1="4" y1="0" x2="4" y2="14" id="Path"></line>
                    <path d="M7.33333333,2.54545455 L2.33333333,2.54545455 C1.04466892,2.54545455 -5.92118946e-16,3.54263851 -5.92118946e-16,4.77272727 C-5.92118946e-16,6.00281603 1.04466892,7 2.33333333,7 L5.66666667,7 C6.95533106,7.00000003 8,7.99718398 8,9.22727273 C8,10.4573615 6.95533106,11.4545455 5.66666667,11.4545455 L-5.92118946e-16,11.4545455" id="Path"></path>
                </g>
            </g>
        </g>
    </g>
</svg>