<?xml version="1.0" encoding="UTF-8"?>
<svg width="30px" height="29px" viewBox="0 0 30 29" version="1.1" xmlns="http://www.w3.org/2000/svg" xmlns:xlink="http://www.w3.org/1999/xlink">
    <!-- Generator: Sketch 64 (93537) - https://sketch.com -->
    <title>ui options@3x</title>
    <desc>Created with Sketch.</desc>
    <g id="Symbols" stroke="none" stroke-width="1" fill="none" fill-rule="evenodd">
        <g id="Navbar/Original" transform="translate(-302.000000, -17.000000)" fill="#2C6AD8">
            <g id="ui-options" transform="translate(317.000000, 31.500000) rotate(-180.000000) translate(-317.000000, -31.500000) translate(302.000000, 17.000000)">
                <g id="icons">
                    <path d="M29.375,3.77 L12.43625,3.77 C12.13,1.64372 10.3225,0 8.125,0 C5.9275,0 4.12,1.64372 3.81375,3.77 L0.625,3.77 C0.28,3.77 0,4.05149333 0,4.39833333 C0,4.74517333 0.28,5.02666667 0.625,5.02666667 L3.81375,5.02666667 C4.12,7.15294667 5.9275,8.79666667 8.125,8.79666667 C10.3225,8.79666667 12.13,7.15294667 12.43625,5.02666667 L29.375,5.02666667 C29.72,5.02666667 30,4.74517333 30,4.39833333 C30,4.05149333 29.72,3.77 29.375,3.77 L29.375,3.77 Z M8.125,7.54 C6.4025,7.54 5,6.13002 5,4.39833333 C5,2.66664667 6.4025,1.25666667 8.125,1.25666667 C9.8475,1.25666667 11.25,2.66664667 11.25,4.39833333 C11.25,6.13002 9.8475,7.54 8.125,7.54 L8.125,7.54 Z" id="Shape"></path>
                    <path d="M29.375,13.8233333 L23.68625,13.8233333 C23.38,11.6970533 21.5725,10.0533333 19.375,10.0533333 C17.1775,10.0533333 15.37,11.6970533 15.06375,13.8233333 L0.625,13.8233333 C0.28,13.8233333 0,14.1048267 0,14.4516667 C0,14.7985067 0.28,15.08 0.625,15.08 L15.06375,15.08 C15.37,17.20628 17.1775,18.85 19.375,18.85 C21.5725,18.85 23.38,17.20628 23.68625,15.08 L29.375,15.08 C29.72,15.08 30,14.7985067 30,14.4516667 C30,14.1048267 29.72,13.8233333 29.375,13.8233333 L29.375,13.8233333 Z M19.375,17.5933333 C17.6525,17.5933333 16.25,16.1833533 16.25,14.4516667 C16.25,12.71998 17.6525,11.31 19.375,11.31 C21.0975,11.31 22.5,12.71998 22.5,14.4516667 C22.5,16.1833533 21.0975,17.5933333 19.375,17.5933333 L19.375,17.5933333 Z" id="Shape"></path>
                    <path d="M16.18625,23.8766667 C15.88,21.7503867 14.0725,20.1066667 11.875,20.1066667 C9.6775,20.1066667 7.87,21.7503867 7.56375,23.8766667 L0.625,23.8766667 C0.28,23.8766667 0,24.15816 0,24.505 C0,24.85184 0.28,25.1333333 0.625,25.1333333 L7.56375,25.1333333 C7.87,27.2596133 9.6775,28.9033333 11.875,28.9033333 C14.0725,28.9033333 15.88,27.2596133 16.18625,25.1333333 L29.375,25.1333333 C29.72,25.1333333 30,24.85184 30,24.505 C30,24.15816 29.72,23.8766667 29.375,23.8766667 L16.18625,23.8766667 Z M11.875,27.6466667 C10.1525,27.6466667 8.75,26.2366867 8.75,24.505 C8.75,22.7733133 10.1525,21.3633333 11.875,21.3633333 C13.5975,21.3633333 15,22.7733133 15,24.505 C15,26.2366867 13.5975,27.6466667 11.875,27.6466667 L11.875,27.6466667 Z" id="Shape"></path>
                </g>
            </g>
        </g>
    </g>
</svg>